<?xml version="1.0" encoding="UTF-8" standalone="no"?>
<!-- Created with Inkscape (http://www.inkscape.org/) -->

<svg
   width="62.511822pt"
   height="70.608749pt"
   viewBox="0 0 22.052781 24.909198"
   version="1.1"
   id="svg1"
   xml:space="preserve"
   xmlns:inkscape="http://www.inkscape.org/namespaces/inkscape"
   xmlns:sodipodi="http://sodipodi.sourceforge.net/DTD/sodipodi-0.dtd"
   xmlns="http://www.w3.org/2000/svg"
   xmlns:svg="http://www.w3.org/2000/svg"><sodipodi:namedview
     id="namedview1"
     pagecolor="#ffffff"
     bordercolor="#000000"
     borderopacity="0.25"
     inkscape:showpageshadow="2"
     inkscape:pageopacity="0.0"
     inkscape:pagecheckerboard="0"
     inkscape:deskcolor="#d1d1d1"
     inkscape:document-units="mm" /><defs
     id="defs1" /><g
     inkscape:label="Layer 1"
     inkscape:groupmode="layer"
     id="layer1"
     transform="translate(-93.901532,-130.24375)"><g
       style="fill:none"
       id="g2"
       transform="matrix(0.26458333,0,0,0.26458333,71.030446,115.1625)"><path
         d="m 169.791,125.099 c 0,1.954 -1.086,3.69 -2.822,4.775 -12.155,7.163 -24.526,14.108 -36.681,21.271 0,-15.194 0,-30.387 0,-45.58 13.24,-7.5968 26.263,-15.1934 39.503,-22.7901 0,14.1081 0,28.2161 0,42.3241 z"
         fill="currentColor"
         id="path3" /><path
         d="m 88.6099,78.8675 c 13.2401,7.5967 26.2631,15.1933 39.5021,22.7895 13.24,-7.5962 26.263,-15.1928 39.503,-22.7895 -12.155,-6.9455 -24.309,-14.1081 -36.681,-21.0536 -1.736,-1.0852 -3.907,-1.0852 -5.643,0 -12.155,7.1626 -24.526,14.1081 -36.6811,21.0536 z"
         fill="currentColor"
         id="path4" /><path
         d="m 89.2635,129.874 c 12.1545,7.163 24.5265,14.108 36.6805,21.271 0,-15.194 0,-30.387 0,-45.58 -13.239,-7.5968 -26.2622,-15.1934 -39.5021,-22.7901 0,14.1081 0,28.2161 0,42.3241 0,2.171 1.0852,3.907 2.8216,4.775 z"
         fill="currentColor"
         id="path5" /></g></g></svg>
